<svg height="807.544" viewBox="0 0 5785.99 807.544" width="5785.99" xmlns="http://www.w3.org/2000/svg" xmlns:xlink="http://www.w3.org/1999/xlink"><linearGradient id="a" gradientUnits="objectBoundingBox" x1=".851" x2=".124" y1=".168" y2=".87"><stop offset="0" stop-color="#939393"/><stop offset="1" stop-color="#949494"/></linearGradient><linearGradient id="b" gradientUnits="objectBoundingBox" x1=".226" x2=".755" y1=".083" y2=".933"><stop offset="0" stop-color="#fbfbfb"/><stop offset="1" stop-color="#dfdddd"/></linearGradient><linearGradient id="c" gradientUnits="objectBoundingBox" x1=".277" x2=".815" y1=".149" y2=".887"><stop offset="0" stop-color="#c5c3c3"/><stop offset="1" stop-color="#8a8989"/></linearGradient><filter id="d"><feOffset/><feGaussianBlur result="blur" stdDeviation="6.5"/><feFlood flood-color="#929292" result="color"/><feComposite in="SourceGraphic" in2="blur" operator="out"/><feComposite in="color" operator="in"/><feComposite in2="SourceGraphic" operator="in"/></filter><linearGradient id="e" gradientUnits="objectBoundingBox" x1=".359" x2=".832" y1=".069" y2=".932"><stop offset="0" stop-color="#6a6868"/><stop offset="1" stop-color="#484747"/></linearGradient><filter id="f"><feOffset/><feGaussianBlur result="blur-2" stdDeviation="7.5"/><feFlood flood-color="#4b4a4a" result="color-2"/><feComposite in="SourceGraphic" in2="blur-2" operator="out"/><feComposite in="color-2" operator="in"/><feComposite in2="SourceGraphic" operator="in"/></filter><g transform="translate(.551 .517)"><path d="m402.058 1948.553s118.876-100.21 198.455-211.227 182.736-226.946 182.736-226.946 243.647-249.542 380.208-5.895c0 0-188.506 192.89-205.332 222.033s-180.771 222.034-180.771 222.034-222.034 195.508-383.154 6.878z" fill="url(#a)" stroke="#707070" transform="translate(-49.96 -1336.865)"/><path d="m379.882 1147.839s261.171-200.739 507.234 185.626 466.223 403.628 466.223 403.628 237.429 69.07 416.579-187.784c0 0-218.74 162.706-416.579-69.151s-361.909-538.382-623.239-524.628-350.218 192.309-350.218 192.309z" fill="url(#b)" stroke="#707070" stroke-linecap="round" transform="translate(-342.635 -939.057)"/><g transform="translate(0 246.735)"><path d="m743.2 1620.644c-170.33-32.554-200.094-292.312-200.094-292.312s-8.306-144.268-126.206-138.978-125.907 138.979-125.907 138.979-34.535 252.537 235.27 364.776 485.649-138.14 485.649-138.14-98.379 98.231-268.712 65.675z" fill="url(#c)" stroke="#707070" transform="translate(-289.56 -1189.212)"/><ellipse cx="128.104" cy="130.895" fill="#bab8b8" rx="64.151" ry="62.506"/><g filter="url(#d)" transform="translate(-.55 -247.25)"><ellipse cx="64.151" cy="62.506" fill="#fff" rx="64.151" ry="62.506" transform="translate(64.5 315.64)"/></g><g fill="none" stroke="#707070"><ellipse cx="128.104" cy="130.895" rx="64.151" ry="62.506" stroke="none"/><ellipse cx="128.104" cy="130.895" fill="none" rx="63.651" ry="62.006"/></g></g><g transform="translate(736.916)"><path d="m558.27 1290.621c170.33 32.554 200.094 292.312 200.094 292.312s8.313 144.269 126.207 138.979 125.907-138.979 125.907-138.979 34.535-252.537-235.27-364.776-485.648 138.143-485.648 138.143 98.38-98.233 268.71-65.679z" fill="url(#e)" stroke="#707070" transform="translate(-289.56 -1189.212)"/><ellipse cx="597.539" cy="401.946" fill="#353434" rx="64.151" ry="62.506"/><g filter="url(#f)" transform="translate(-737.47 -.52)"><ellipse cx="64.151" cy="62.506" fill="#fff" rx="64.151" ry="62.506" transform="translate(1270.85 339.96)"/></g><g fill="none" stroke="#2a2929"><ellipse cx="597.539" cy="401.946" rx="64.151" ry="62.506" stroke="none"/><ellipse cx="597.539" cy="401.946" fill="none" rx="63.651" ry="62.006"/></g></g><g fill="#d9d9d9" stroke="#707070"><ellipse cx="722.395" cy="378.917" rx="64.151" ry="62.506" stroke="none"/><ellipse cx="722.395" cy="378.917" fill="none" rx="63.651" ry="62.006"/></g></g><g fill="#020202"><path d="m140-50v-650h-53v700h383v-50zm455-571a40.118 40.118 0 0 0 40-40c0-21-18-39-40-39s-40 18-40 39a40.118 40.118 0 0 0 40 40zm-25 621h50v-500h-50zm460-451v-49h-149v-140l-51 15v125h-110v49h110v325c0 114 69 146 200 126v-45c-102 9-149 7-149-81v-325zm315-60c-153 0-259 114-259 261 0 151 109 261 263 261 99 0 177-45 218-113l-44-26c-29 53-91 91-173 91-114 0-200-74-212-187h453c0-8 1-16 1-24 0-137-95-263-247-263zm0 48c98 0 184 68 195 190h-402c10-111 93-190 207-190z" stroke="#020202" stroke-width="8" transform="translate(4189.991 748.517)"/><path d="m220-154v-124h250v-152h-250v-116h275v-154h-435v700h440v-154zm658-202v-144h-103v-140l-150 45v95h-80v144h80v177c0 140 57 199 253 179v-136c-66 4-103 0-103-43v-177zm378-158c-66 0-116 24-143 61v-247h-150v700h150v-273c0-71 38-103 93-103 48 0 87 29 87 91v285h150v-307c0-135-86-207-187-207zm424 324h355a290.681 290.681 0 0 0 6-60c0-151-108-264-254-264-158 0-266 115-266 264s106 264 277 264c95 0 169-35 218-103l-120-69c-20 22-55 38-96 38-55 0-101-18-120-70zm-3-112c14-51 52-79 109-79 45 0 90 21 106 79zm599-109v-89h-150v500h150v-226c0-99 88-124 150-114v-170c-63 0-130 32-150 99z" transform="translate(1708.991 747.517)"/></g></svg>