<svg width="150" height="150" viewBox="0 0 150 150" fill="none" xmlns="http://www.w3.org/2000/svg">
<path d="M0 29.8828C0 13.379 13.379 0 29.8828 0H120.117C136.621 0 150 13.379 150 29.8828V120.117C150 136.621 136.621 150 120.117 150H29.8828C13.379 150 0 136.621 0 120.117V29.8828Z" fill="#F3F3F3"/>
<path d="M0 29.8828C0 13.379 13.379 0 29.8828 0H120.117C136.621 0 150 13.379 150 29.8828V120.117C150 136.621 136.621 150 120.117 150H29.8828C13.379 150 0 136.621 0 120.117V29.8828Z" fill="white"/>
<path fill-rule="evenodd" clip-rule="evenodd" d="M110.402 108.776C101.59 118.014 89.1596 123.77 75.385 123.77C74.4159 123.77 73.4534 123.741 72.4983 123.685L93.3794 87.518C94.303 86.1706 95.0638 84.7332 95.6564 83.2367L110.402 108.776ZM115.899 101.847C120.876 94.2428 123.77 85.1519 123.77 75.385C123.77 70.6116 123.079 65.9996 121.791 61.6437H92.4557C92.7304 61.9896 92.9964 62.3459 93.2531 62.7126C93.882 63.6107 94.4336 64.5398 94.9094 65.4919L115.899 101.847ZM75.385 53.4261V53.4182H118.508C110.504 37.7373 94.1983 27 75.385 27C48.6627 27 27 48.6627 27 75.385C27 98.1008 42.6539 117.16 63.7627 122.365L78.5498 96.7529C70.6734 97.8913 62.4584 94.6542 57.582 87.69C50.6848 77.8396 53.0787 64.2629 62.929 57.3656C66.726 54.7069 71.0767 53.4288 75.385 53.4261Z" fill="#1C2140"/>
</svg>
