<?xml version="1.0" encoding="UTF-8"?>
<svg width="100px" height="100px" viewBox="0 0 100 100" version="1.1" xmlns="http://www.w3.org/2000/svg" xmlns:xlink="http://www.w3.org/1999/xlink">
    <title>sherpa logo</title>
    <defs>
        <linearGradient x1="4.80696801%" y1="64.3849621%" x2="129.243207%" y2="38.0232439%" id="linearGradient-1">
            <stop stop-color="#FFC859" offset="0%"></stop>
            <stop stop-color="#F02222" offset="100%"></stop>
        </linearGradient>
        <linearGradient x1="24.1200931%" y1="25.7884176%" x2="74.9944768%" y2="89.8619218%" id="linearGradient-2">
            <stop stop-color="#0097FF" offset="5%"></stop>
            <stop stop-color="#B930C0" offset="99%"></stop>
        </linearGradient>
        <linearGradient x1="53.6271297%" y1="112.324035%" x2="41.5208287%" y2="0.15557626%" id="linearGradient-3">
            <stop stop-color="#367DFF" offset="0%"></stop>
            <stop stop-color="#31FFA1" offset="100%"></stop>
        </linearGradient>
    </defs>
    <g id="页面-1" stroke="none" stroke-width="1" fill="none" fill-rule="evenodd">
        <g id="sherpa-logo">
            <rect id="矩形" stroke="#979797" fill="#D8D8D8" opacity="0" x="0.5" y="0.5" width="99" height="99"></rect>
            <g id="SherpaX-logo" transform="translate(0.000000, 6.000000)" fill-rule="nonzero">
                <path d="M1.53953165,87.0143288 L31.8990958,87.0143288 C32.4488354,87.0137652 32.9565599,86.7201095 33.2311857,86.2438799 C33.5058115,85.7676502 33.5056609,85.1811199 33.2307906,84.7050313 L18.0548574,58.4136796 C17.7799372,57.9370092 17.271507,57.6433145 16.7212381,57.6433145 C16.1709693,57.6433145 15.6625391,57.9370092 15.3876188,58.4136796 L0.207836773,84.7050313 C-0.067033489,85.1811199 -0.067184069,85.7676502 0.207441704,86.2438799 C0.482067476,86.7201095 0.989791992,87.0137652 1.53953165,87.0143288 Z" id="路径" fill="url(#linearGradient-1)"></path>
                <path d="M69.7946673,35.4900533 L24.7633666,54.3146766 C24.3546071,54.4846758 24.0388113,54.822411 23.8966086,55.2416513 C23.7544058,55.6608915 23.7995601,56.121058 24.0205425,56.5046603 L41.1824716,86.2445629 C41.4572003,86.7204076 41.9647089,87.0137652 42.5141665,87.0143305 L98.4261071,87.0143305 C98.9765343,87.0151408 99.485519,86.7220285 99.7610841,86.245547 C100.036649,85.7690656 100.036865,85.1817154 99.7616508,84.7050313 L71.7229307,36.1405054 C71.3355345,35.4692274 70.5095187,35.1905913 69.7946673,35.4900533 Z" id="路径" fill="url(#linearGradient-2)"></path>
                <path d="M48.6684442,0.769765824 L23.0929747,45.0813355 C22.7640142,45.6528005 22.8355061,46.3703069 23.2707602,46.865626 C23.7060143,47.3609452 24.4083761,47.5240843 25.0173893,47.2713193 L66.2306515,30.0439601 C66.6387383,29.8731945 66.9536478,29.5351353 67.0950852,29.1159799 C67.2365225,28.6968246 67.1908185,28.237082 66.9696267,27.8539764 L51.3356828,0.769765824 C51.0607626,0.293095431 50.5523324,-0.000599207252 50.0020635,-0.000599207252 C49.4517947,-0.000599207252 48.9433645,0.293095431 48.6684442,0.769765824 Z" id="路径" fill="url(#linearGradient-3)"></path>
            </g>
        </g>
    </g>
</svg>