<?xml version="1.0" encoding="UTF-8"?>
<svg width="29px" height="29px" viewBox="0 0 29 29" version="1.1" xmlns="http://www.w3.org/2000/svg" xmlns:xlink="http://www.w3.org/1999/xlink">
    <title>画板</title>
    <defs>
        <polygon id="path-1" points="0 0 27 0 27 25.176655 0 25.176655"></polygon>
    </defs>
    <g id="画板" stroke="none" stroke-width="1" fill="none" fill-rule="evenodd">
        <g id="编组" transform="translate(1.000000, 0.000000)">
            <g transform="translate(0.000000, 3.823345)">
                <mask id="mask-2" fill="white">
                    <use xlink:href="#path-1"></use>
                </mask>
                <g id="Clip-2"></g>
                <path d="M18.0826818,8.13730638 C17.1798437,8.61051144 16.7949394,8.53361783 16.1604775,7.85315354 C16.0645295,7.7501868 15.8549272,7.74364643 15.5757974,7.65269984 C15.8852412,8.17168754 16.0980881,8.57595351 16.3575649,8.95078778 C16.6210278,9.33136697 17.0615542,9.49620213 17.4814078,9.34630378 C17.7140932,9.26313494 17.8592667,8.91242936 18.0008248,8.66035972 C18.0739677,8.52999411 18.0531095,8.35163628 18.0826818,8.13730638 L18.0826818,8.13730638 Z M10.0007095,16.6590632 C9.9587149,16.0546087 9.78480339,15.5974894 9.3722734,15.2494353 C8.99302392,14.9293988 8.86481516,14.5971654 9.14255445,14.1375714 C9.42372377,13.6720557 9.5071568,13.1584593 9.27354431,12.6143707 C8.37561949,13.693798 8.00591846,14.9293104 8.05356799,16.340264 C8.70907351,16.4475616 9.3226771,16.5480536 10.0007095,16.6590632 L10.0007095,16.6590632 Z M15.5572567,13.0451517 C15.5028398,13.0547855 15.4483302,13.0645077 15.3939134,13.0741415 C15.1696639,13.5890636 14.6709198,13.9371177 14.6751841,14.6147537 C14.6783361,15.1066077 14.3337576,15.5954566 14.174586,16.094558 C14.016434,16.5904776 14.2736859,16.8829385 14.8303696,16.8757795 C15.1836621,16.8712719 15.5372328,16.8668527 15.8898764,16.848469 C16.9319549,16.7942015 17.0177982,16.7675097 16.7372779,15.8547737 C16.4410906,14.8910404 15.9584769,13.9794533 15.5572567,13.0451517 L15.5572567,13.0451517 Z M14.3312547,12.6867568 C13.1825672,12.5027424 13.0297921,12.4437023 12.1461436,11.8790203 C11.3225668,11.3526968 10.6332246,11.6153724 10.4359518,12.5233358 C10.3831109,12.7663903 10.3257275,13.0147478 10.2223633,13.240656 C9.75717778,14.256889 9.98263237,15.2466071 10.3407455,16.2251888 C10.4642264,16.5628136 10.7428,16.7630905 11.1470794,16.7773203 C11.5003719,16.7897823 11.8522739,16.8364488 12.2054737,16.8527998 C13.5558837,16.9152869 13.7270141,16.7254392 13.6739878,15.4067579 C13.6598969,15.0561407 13.7799477,14.6961549 13.8681086,14.3473053 C14.0058658,13.8025096 14.1689311,13.2636357 14.3312547,12.6867568 L14.3312547,12.6867568 Z M10.8964095,5.81759398 C11.1498605,5.46750708 11.4243551,5.07119563 11.7175759,4.68796493 C12.0721663,4.22465881 12.17757,3.73908006 11.8840711,3.39845019 C11.6789186,3.16043352 11.8054587,3.03245426 11.9314426,2.86841456 C12.1250072,2.6164333 12.2568314,2.22630869 12.6820617,2.34341678 C12.9815863,2.42596693 13.2586767,2.61705198 13.5080487,2.80530876 C13.5657102,2.84888181 13.4651271,3.07788336 13.446401,3.2225671 C13.4413023,3.2615442 13.4686498,3.30458695 13.4821845,3.34542011 C13.6088173,3.72847404 13.7601092,4.10631335 13.8491971,4.49714503 C13.8803455,4.63352071 13.7996008,4.89805242 13.6984615,4.93764821 C13.3694572,5.06606939 13.2995589,5.08268548 13.4339788,5.31495722 C13.875803,6.07850197 14.2620979,6.89109953 15.3756508,6.98611176 C15.6573763,7.01015206 16.0602652,7.23261324 16.1586234,7.46117288 C16.5546522,8.38221695 17.1905973,8.59407212 17.9338002,8.01984475 C17.914796,7.80843151 17.8430436,7.61531364 17.8949575,7.45967036 C17.993872,7.16305545 18.1633338,6.88791773 18.3081364,6.5946614 C18.530161,6.5609873 18.8429422,6.43565954 19.1181785,6.48842447 C19.6540966,6.59130282 20.1609059,6.63796929 20.7033133,6.50689662 C21.0438128,6.42461161 21.2608314,6.71998915 21.2314444,7.0949118 C21.2269947,7.15200752 21.2989325,7.21449463 21.3155264,7.24162835 C21.1080562,7.33390069 20.9216298,7.40080697 20.7526315,7.49608435 C20.5387649,7.61655101 20.3525238,7.84422681 20.1306846,7.87622162 C19.6547455,7.94498396 19.5369196,8.1623189 19.5003944,8.59716554 C19.3657891,10.1977017 18.8432203,10.7493029 17.2056153,11.1414603 C17.1461924,11.1557784 17.0866769,11.1715107 17.0293862,11.1923692 C16.5915482,11.351371 16.0107616,12.0395247 16.1169996,12.3533744 C16.2986982,12.8899504 16.5476995,13.4056679 16.7668502,13.9307541 C16.8668772,14.1703616 16.988504,14.4050197 17.0560847,14.652847 C17.205708,15.2014431 17.3173228,15.7594079 17.4646285,16.3085344 C17.5348976,16.5703262 17.7256812,16.6861969 18.0246495,16.625124 C18.6710701,16.4930791 19.3288932,16.4039001 19.965858,16.2401256 C21.6195934,15.8150011 23.1326051,15.1338298 24.4222016,14.0211703 C26.5977643,12.1440823 26.6713707,7.6352883 23.4049676,6.09900693 C22.436032,5.64321341 21.3776376,5.33228038 20.3290698,5.0665113 C19.2174638,4.7848332 18.0691471,4.63422778 16.9361266,4.4299736 C16.6384561,4.37623645 16.461578,4.23172949 16.3592335,3.94351101 C16.1377652,3.31961214 15.8654027,2.71232936 15.6339224,2.09143552 C15.550582,1.86791374 15.4436024,1.77122223 15.176524,1.77511111 C14.0830877,1.7911969 12.9890026,1.7927878 11.8956591,1.77440404 C11.6060537,1.76954295 11.4898964,1.87843138 11.4017355,2.11697834 C11.1770226,2.72461466 10.9160626,3.32023082 10.6964483,3.92936966 C10.5838137,4.24189359 10.4091606,4.42069333 10.0487299,4.45259976 C9.267704,4.52171563 8.4888103,4.6127506 7.70936039,4.69777549 C6.38787388,4.84184054 5.10699145,5.11317777 3.89591465,5.6710542 C0.244236293,7.3530799 -0.176266183,12.2753318 3.09931461,14.3635679 C4.02162042,14.9514947 5.08029288,15.3508112 6.09539476,15.7975896 C6.51719508,15.9831949 6.988499,16.0664521 7.58550869,16.2391534 C7.58550869,15.6581205 7.63974016,15.1737791 7.56947101,14.7064073 C7.50532028,14.2798687 7.60451288,13.9432161 7.82737178,13.5873843 C8.22868465,12.9464274 8.48222837,12.266847 8.13579588,11.5109032 L8.13579588,12.4475028 C8.09834372,12.4500659 8.06098426,12.452629 8.0236248,12.4552805 C7.95854704,11.9546766 7.91145373,11.451156 7.82421986,10.9540874 C7.70574496,10.279368 7.99553568,9.78512768 8.52505732,9.38298292 C8.71760222,9.23670828 8.93044915,9.11305982 9.11214775,8.95609079 C9.20577815,8.87513153 9.31794923,8.73716495 9.30728834,8.63605426 C9.26130747,8.20067732 9.46785057,7.87189083 9.72640026,7.55167754 C9.78109525,7.48388743 9.86888534,7.36456975 9.84413354,7.32612294 C9.64435778,7.0168692 9.92330222,6.94050589 10.1024978,6.83753916 C10.3520553,6.69426956 10.6223783,6.58414376 10.8782396,6.45024282 C11.0152552,6.37856383 11.1406828,6.28673341 11.2713019,6.20400649 C11.1716458,6.1013049 11.0719896,5.99851493 10.8964095,5.81759398 L10.8964095,5.81759398 Z M0.593820693,3.15769363 C2.96647069,3.37918259 5.33912068,3.60067155 7.76266482,3.82693322 L7.76266482,2.57560014 C7.83386101,2.52690085 7.86093039,2.4934919 7.88067621,2.49702724 C8.55731809,2.61890804 8.81772185,2.26104339 8.9785622,1.7019296 C9.11604129,1.22421698 9.35873871,0.775052211 9.52412152,0.303349664 C9.60857428,0.0626814918 9.74596067,0.00152013479 9.99635247,0.00231558596 C12.3372979,0.0101817143 14.6782434,0.0126564512 17.0191888,-1.57268946e-15 C17.3215872,-0.00157328645 17.4544311,0.10448687 17.5480615,0.361064066 C17.7448708,0.900114813 18.003884,1.42042827 18.1722333,1.96663807 C18.2990515,2.37841663 18.4910402,2.48412325 18.9363871,2.48412325 C19.0290905,2.48412325 19.1050146,2.4726334 19.2163513,2.48412325 L19.2163513,3.98929365 C21.8055564,4.16888884 24.3026143,3.89498849 26.7390442,3.05905769 C26.7651866,3.12764326 26.7914216,3.19622882 26.817564,3.26481439 C26.6497709,3.43963688 26.4848516,3.61711088 26.3136284,3.78875157 C25.7849411,4.31852205 25.2488376,4.84157539 24.726176,5.37664888 C24.5341873,5.57312532 24.5329822,5.74653368 24.7689122,5.9660782 C26.5886793,7.65968214 27.1959791,9.76214798 26.946607,12.1182744 C26.4880962,16.4505666 24.0524079,19.5423969 20.1998413,21.6929434 C18.1163332,22.8560698 15.9812819,23.93479 13.8781206,25.0661867 C13.6024208,25.2144941 13.3991223,25.2116659 13.1244422,25.068573 C10.9513826,23.9368228 8.75347842,22.847585 6.59367536,21.6933853 C3.24300483,19.9027363 0.978354262,17.3005504 0.247017394,13.6339624 C-0.234854712,11.2180888 -0.0730873351,8.87035883 1.28195779,6.69329734 C1.38356068,6.53005308 1.46050448,6.35284424 1.54810916,6.18173385 C1.98038496,5.33705309 1.80702967,4.59127342 1.14568384,3.92300605 C0.937935594,3.71309532 0.737047396,3.49699775 0.533007283,3.28381684 L0.593820693,3.15769363 Z" id="Fill-1" fill="#E9C55E" mask="url(#mask-2)"></path>
            </g>
            <polygon id="Fill-3" fill="#E9C55E" points="12.1214196 0 14.8574668 0 14.8574668 1.77323744 16.9153888 1.77323744 16.9153888 3.28821839 10.0989102 3.28821839 10.0989102 1.79975248 12.1214196 1.79975248"></polygon>
        </g>
    </g>
</svg>