<svg width="64" height="64" viewBox="0 0 64 64" fill="none" xmlns="http://www.w3.org/2000/svg">
    <path d="M32 64C49.6731 64 64 49.6731 64 32C64 14.3269 49.6731 0 32 0C14.3269 0 0 14.3269 0 32C0 49.6731 14.3269 64 32 64Z" fill="#010101"/>
    <path d="M44.4109 45.9107L50.6009 42.5706V22.2229L44.4109 25.563V45.9107Z" fill="white"/>
    <path d="M50.8343 22.2773L44.3565 25.5999L25.7984 14.9533L31.823 11.7592C32.3657 11.4401 33.0349 11.4265 33.5893 11.7222L50.8343 22.2773Z" fill="white"/>
    <path d="M44.5744 31.3075L38.4428 34.6689L20.4878 25.279L25.5942 22.0848C26.1369 21.7658 26.8061 21.7522 27.3605 22.0479L44.5744 31.3075Z" fill="white"/>
    <path d="M39.007 40.9657L31.9981 44.0199L16.356 34.9023L21.0967 32.3306C21.6491 32.031 22.3183 32.0408 22.863 32.3559L39.007 40.9657Z" fill="white"/>
    <path d="M38.2988 49.1634L44.4109 45.8545V31.1792L38.2988 34.4881V49.1634Z" fill="white"/>
    <path d="M32.0759 53.5033L38.6646 49.7197V40.6353L32.0759 43.6135V53.5033Z" fill="white"/>
    <path d="M32.2101 53.6899C31.8541 53.6899 31.4981 53.5984 31.1791 53.4136L14.1384 43.5744C13.5042 43.2087 13.1093 42.5239 13.1093 41.7905V22.1139C13.1093 21.3806 13.5042 20.6958 14.1403 20.3301L31.181 10.4908C31.8171 10.1232 32.6069 10.1251 33.2411 10.4908L50.2838 20.3301C50.9179 20.6958 51.3128 21.3806 51.3128 22.1139V41.7925C51.3128 42.5259 50.9179 43.2106 50.2818 43.5763L33.2411 53.4156C32.924 53.5984 32.5661 53.6899 32.2101 53.6899ZM15.4028 41.6563L32.2101 51.3594L49.0174 41.6563V22.2501L32.2101 12.547L15.4028 22.2501V41.6563Z" fill="white"/>
</svg>
