<svg width="720" height="720" viewBox="0 0 720 720" fill="none" xmlns="http://www.w3.org/2000/svg">
<circle cx="360" cy="360" r="360" fill="black"/>
<path fill-rule="evenodd" clip-rule="evenodd" d="M614.213 294.444C588.072 279.352 543.394 304.634 500.926 353.952C518.091 340.602 534.033 335.448 544.768 341.646C566.462 354.171 558.666 408.294 527.351 462.533C496.036 516.772 453.062 550.585 431.368 538.06C420.633 531.863 417.126 515.479 420.105 493.939C398.628 555.376 399.072 606.709 425.213 621.802C461.372 642.678 532.993 586.321 585.184 495.923C637.376 405.524 650.372 315.321 614.213 294.444Z" fill="url(#paint0_linear_602_8480)"/>
<path fill-rule="evenodd" clip-rule="evenodd" d="M219.25 502.888C183.091 482.012 196.087 391.808 248.279 301.409C300.47 211.011 372.091 154.654 408.25 175.531C426.221 185.906 432.046 213.412 426.953 249.545C451.843 167.563 447.979 100.261 411.22 79.0377C356.981 47.7227 251.666 128.592 175.987 259.672C100.309 390.751 82.9307 522.391 137.17 553.706C173.929 574.929 234.146 544.624 292.7 482.078C263.954 504.555 237.221 513.264 219.25 502.888Z" fill="url(#paint1_linear_602_8480)"/>
<path d="M476.601 400.495L378.393 343.795C342.234 322.918 329.845 276.683 350.722 240.523L448.929 297.223C485.088 318.1 497.477 364.336 476.601 400.495Z" fill="#00C6D2"/>
<path d="M344.979 477.27L246.772 420.57C267.648 384.411 313.884 372.022 350.043 392.899L448.251 449.599C427.374 485.758 381.138 498.147 344.979 477.27Z" fill="#00C6D2"/>
<defs>
<linearGradient id="paint0_linear_602_8480" x1="424.444" y1="623.595" x2="600.73" y2="305.382" gradientUnits="userSpaceOnUse">
<stop stop-color="#009EFD"/>
<stop offset="1" stop-color="#12EFCF"/>
</linearGradient>
<linearGradient id="paint1_linear_602_8480" x1="446.887" y1="87.7001" x2="171.656" y2="576.344" gradientUnits="userSpaceOnUse">
<stop stop-color="#009EFD"/>
<stop offset="1" stop-color="#12EFCF"/>
</linearGradient>
</defs>
</svg>
