<svg version="1.1" id="图层_1" xmlns="http://www.w3.org/2000/svg" x="0" y="0" viewBox="0 0 122 122" style="enable-background:new 0 0 122 122" xml:space="preserve"><path d="M61.1 13c1.1 0 2.1.3 3 .8L101 35.1c1.9 1.1 3 3.1 3 5.2v41.4c0 2.1-1.1 4.1-3 5.2l-36.9 21.3c-.9.5-1.9.8-3 .8s-2.1-.3-3-.8l-37-21.3c-1.9-1.1-3-3.1-3-5.2V40.3c0-2.1 1.1-4.1 3-5.2L58 13.8c1-.5 2-.8 3.1-.8m0-12c-3.1 0-6.2.8-9 2.4l-37 21.3c-5.6 3.2-9 9.2-9 15.6v41.4c0 6.4 3.4 12.4 9 15.6L52 118.6c2.8 1.6 5.9 2.4 9 2.4s6.2-.8 9-2.4l36.9-21.3c5.6-3.2 9-9.2 9-15.6V40.3c0-6.4-3.4-12.4-9-15.6L70.1 3.4c-2.8-1.6-5.9-2.4-9-2.4z" style="fill:#ff9500"/></svg>