<svg width="288" height="288" viewBox="0 0 288 288" fill="none" xmlns="http://www.w3.org/2000/svg">
<g filter="url(#filter0_d)">
<circle cx="144" cy="140" r="140" fill="url(#paint0_radial)"/>
<circle cx="144" cy="140" r="137.5" stroke="#273461" stroke-width="5"/>
</g>
<path d="M113.477 187.858L112.415 187.21L112.011 188.386L106.054 205.721L105.8 206.46L106.457 206.885C110.536 209.523 115.511 211.577 121.361 213.064C127.246 214.745 134.198 215.575 142.199 215.575C148.972 215.575 154.883 214.553 159.904 212.475C165.062 210.415 169.334 207.685 172.695 204.271C176.226 200.682 178.832 196.521 180.506 191.797C182.17 187.098 183 182.124 183 176.88C183 168.897 181.723 162.224 179.11 156.909C176.537 151.496 173.221 146.902 169.158 143.144C165.316 139.242 161.105 135.895 156.528 133.104C152.03 130.362 147.804 127.711 143.847 125.153C140.13 122.453 137.048 119.585 134.591 116.555C132.217 113.448 131.014 109.727 131.014 105.342C131.014 99.6248 132.42 95.6347 135.025 93.145C137.831 90.6367 142.318 89.2834 148.697 89.2834C153.297 89.2834 157.808 89.9125 162.232 91.1712L162.25 91.1764L162.268 91.1809C166.715 92.2653 170.604 93.7057 173.947 95.4935L175.014 96.0639L175.373 94.9092L180.518 78.4005L180.752 77.6502L180.078 77.2457C176.007 74.801 171.219 72.9337 165.73 71.6307C160.211 70.137 153.716 69.3989 146.26 69.3989C134.71 69.3989 125.589 72.4764 119.034 78.7563C112.634 84.8778 109.52 93.9876 109.52 105.893C109.52 113.337 110.801 119.565 113.427 124.52C116.005 129.385 119.232 133.604 123.11 137.17L123.119 137.178L123.127 137.185C127.148 140.714 131.446 143.781 136.018 146.383L136.032 146.39L136.045 146.398C140.51 148.757 144.613 151.386 148.355 154.283L148.364 154.29L148.373 154.297C152.265 157.173 155.433 160.397 157.891 163.965C160.275 167.426 161.505 171.891 161.505 177.43C161.505 184.002 159.508 188.606 155.689 191.48C151.736 194.271 146.896 195.691 141.116 195.691C135.983 195.691 130.94 194.972 125.982 193.535C121.173 191.905 117.008 190.01 113.477 187.858Z" fill="white" stroke="white" stroke-width="2"/>
<path d="M60.3838 156.247C69.504 156.247 76.8838 148.737 76.8838 139.488C76.8838 130.24 69.504 122.729 60.3838 122.729C51.2635 122.729 43.8838 130.24 43.8838 139.488C43.8838 148.737 51.2635 156.247 60.3838 156.247Z" fill="white" stroke="white"/>
<path d="M229.3 156.248C238.421 156.248 245.8 148.737 245.8 139.488C245.8 130.24 238.421 122.729 229.3 122.729C220.18 122.729 212.8 130.24 212.8 139.488C212.8 148.737 220.18 156.248 229.3 156.248Z" fill="white" stroke="white"/>
<defs>
<filter id="filter0_d" x="0" y="0" width="288" height="288" filterUnits="userSpaceOnUse" color-interpolation-filters="sRGB">
<feFlood flood-opacity="0" result="BackgroundImageFix"/>
<feColorMatrix in="SourceAlpha" type="matrix" values="0 0 0 0 0 0 0 0 0 0 0 0 0 0 0 0 0 0 127 0"/>
<feOffset dy="4"/>
<feGaussianBlur stdDeviation="2"/>
<feColorMatrix type="matrix" values="0 0 0 0 0 0 0 0 0 0 0 0 0 0 0 0 0 0 0.25 0"/>
<feBlend mode="normal" in2="BackgroundImageFix" result="effect1_dropShadow"/>
<feBlend mode="normal" in="SourceGraphic" in2="effect1_dropShadow" result="shape"/>
</filter>
<radialGradient id="paint0_radial" cx="0" cy="0" r="1" gradientUnits="userSpaceOnUse" gradientTransform="translate(144 270) rotate(90) scale(252)">
<stop stop-color="#A1A6B7"/>
<stop offset="0.52381" stop-color="#6B7897"/>
<stop offset="1" stop-color="#3C4E78"/>
</radialGradient>
</defs>
</svg>
