<?xml version="1.0" encoding="utf-8"?>
<!-- Generator: Adobe Illustrator 27.1.1, SVG Export Plug-In . SVG Version: 6.00 Build 0)  -->
<svg version="1.1" id="Layer_1" xmlns="http://www.w3.org/2000/svg" xmlns:xlink="http://www.w3.org/1999/xlink" x="0px" y="0px"
	 viewBox="0 0 512 512" style="enable-background:new 0 0 512 512;" xml:space="preserve">
<style type="text/css">
	.st0{fill:#9D8A57;}
</style>
<path class="st0" d="M126.8,126.9l146.6,0c3.9,0,5.9,4.8,3.1,7.5L137.6,273.3c-1.7,1.7-4.5,1.7-6.2,0l-14.8-14.8
	c-1.7-1.7-1.7-4.5,0-6.2l114.4-114.4l-9.2,0c-1.2,0-2.3,0.5-3.1,1.3L105.5,252.3c-1.7,1.7-1.7,4.5,0,6.2l25.8,25.8
	c1.7,1.7,4.5,1.7,6.2,0L292,130c1.7-1.7,1.7-4.5,0-6.2l-34.5-34.5c-0.8-0.8-2-1.3-3.1-1.3H126.8H92.3c-2.4,0-4.4,2-4.4,4.4v63
	c0,3.9,4.8,5.9,7.5,3.1l31.4-31.4V126.9z"/>
<path class="st0" d="M385.2,385.2l-146.6,0c-3.9,0-5.9-4.8-3.1-7.5l139-139c1.7-1.7,4.5-1.7,6.2,0l14.8,14.8c1.7,1.7,1.7,4.5,0,6.2
	L281.1,374.1l9.2,0c1.2,0,2.3-0.5,3.1-1.3l113.1-113.1c1.7-1.7,1.7-4.5,0-6.2l-25.8-25.8c-1.7-1.7-4.5-1.7-6.2,0L220,382.1
	c-1.7,1.7-1.7,4.5,0,6.2l34.5,34.5c0.8,0.8,2,1.3,3.1,1.3h162c2.4,0,4.4-2,4.4-4.4v-63c0-3.9-4.8-5.9-7.5-3.1L385.2,385V385.2z"/>
<path class="st0" d="M388.4,204.6l48.3,48.3c1.7,1.7,1.7,4.5,0,6.2L329.3,366.6c-2.8,2.8-0.8,7.5,3.1,7.5h46.2
	c1.2,0,2.3-0.5,3.1-1.3l113.7-113.7c1.7-1.7,1.7-4.5,0-6.2l-77.7-77.7c-1.7-1.7-4.5-1.7-6.2,0l-23.1,23.1
	C386.7,200,386.7,202.8,388.4,204.6z"/>
<path class="st0" d="M126.5,310.4l-51.3-51.3c-1.7-1.7-1.7-4.5,0-6.2l107.4-107.4c2.8-2.8,0.8-7.5-3.1-7.5l-46.2,0
	c-1.2,0-2.3,0.5-3.1,1.3L16.6,252.9c-1.7,1.7-1.7,4.5,0,6.2l80.6,80.6c1.7,1.7,4.5,1.7,6.2,0l23.1-23.1
	C128.2,314.9,128.2,312.1,126.5,310.4z"/>
<path class="st0" d="M450.6,114.4l-26.5-26.5l0,0h-72.5c-2.8,0-4.9,2.6-4.3,5.4l3.4,14.8l-91.5-91.5c-1.7-1.7-4.5-1.7-6.2,0
	l-52.7,52.7c-2.8,2.8-0.8,7.5,3.1,7.5h48l4.7-4.7l62.2,62.2c1.7,1.7,1.7,4.5,0,6.2L64.3,394.3c-1.7,1.7-1.7,4.5,0,6.2l22.2,22.2
	c0.8,0.8,2,1.3,3.1,1.3h71.4c2.6,0,4.6-2.2,4.4-4.8l-1.1-12.4l88.5,88.5c1.7,1.7,4.5,1.7,6.2,0l52.7-52.7c2.8-2.8,0.8-7.5-3.1-7.5
	c0,0-44,0-46.2,0s-1.7-0.1-3.4,1.6s-4.5,1.7-6.2,0l-56.1-56c-1.7-1.7-1.7-4.5,0-6.2l253.8-253.8
	C452.4,118.9,452.4,116.1,450.6,114.4z"/>
</svg>
