<svg width="60" height="60" fill="none" xmlns="http://www.w3.org/2000/svg"><rect width="60" height="60" rx="30" fill="#1C5551"/><path d="M29.487 10.03c-3.996.153-8.202 4.526-6.22 8.9.028-.355.04-.695.052-1.024.055-1.502.1-2.75 1.481-3.896 1.322-1.124 3.696-1.246 5.228.03.908.764 1.477 1.765 2.002 2.688.83 1.46 1.549 2.722 3.316 2.536 4.057-.425 1.953-9.87-5.859-9.233ZM44.45 24.032c6.25.911 6.28 12.21-.841 10.903-1.142-.212-2.254-.698-3.305-1.245-3.305-1.67-7.03.638-4.026 3.128 2.584 2.157 9.104 1.61 11.778-1.579 3.605-4.252 1.863-9.87-2.494-11.875-5.048-2.339-10.366-.972-14.692 2.338-.481.365-3.065 2.886-5.289 5.072l-.223.221c-2.852 2.828-7.043 6.981-11.404 4.821-1.983-1.002-3.456-4.252-2.705-7.38 1.12-4.611 4.442-3.408 7.548-2.282 2.479.898 4.82 1.746 5.793-.451.931-4.313-8.713-5.133-12.59-.7-4.326 4.982-1.051 11.117 4.267 12.544 4.297 1.489 9.525-.455 12.319-2.703 1.186-.943 2.457-2.239 3.8-3.608 3.589-3.66 7.691-7.845 12.064-7.204ZM36.849 41.07c1.983 4.374-2.224 8.747-6.22 8.9-7.812.637-9.915-8.809-5.859-9.234 1.768-.186 2.486 1.077 3.317 2.536.524.923 1.094 1.924 2.001 2.688 1.533 1.276 3.906 1.154 5.228.03 1.382-1.147 1.426-2.376 1.481-3.888.012-.33.025-.673.052-1.032Z" fill="#fff"/></svg>