<svg width="90" height="87" viewBox="0 0 90 87" fill="none" xmlns="http://www.w3.org/2000/svg">
<g clip-path="url(#clip0_550_3687)">
<path d="M12.6231 12.6231L0 0V43.0728C0.00489561 51.5944 2.536 59.9233 7.27338 67.0067C12.0108 74.0902 18.7418 79.6102 26.6156 82.869C34.4895 86.1279 43.1528 86.9793 51.5104 85.3157C59.868 83.6521 67.5449 79.5481 73.5707 73.5225L12.6231 12.6231Z" fill="#48A3FF"/>
<path d="M77.3767 73.5224L89.9999 86.1456V43.0728C89.995 34.5512 87.4639 26.2223 82.7265 19.1388C77.9891 12.0554 71.2581 6.5354 63.3842 3.27654C55.5104 0.0176777 46.8471 -0.833752 38.4895 0.829864C30.1318 2.49348 22.455 6.59746 16.4292 12.6231L77.3767 73.5224Z" fill="#48A3FF"/>
</g>
<defs>
<clipPath id="clip0_550_3687">
<rect width="90" height="86.1456" fill="white"/>
</clipPath>
</defs>
</svg>
