<?xml version="1.0" encoding="utf-8"?>
<!-- Generator: Adobe Illustrator 25.2.1, SVG Export Plug-In . SVG Version: 6.00 Build 0)  -->
<svg version="1.1" id="Layer_1" xmlns="http://www.w3.org/2000/svg" xmlns:xlink="http://www.w3.org/1999/xlink" x="0px" y="0px"
	 viewBox="0 0 220.78 333.53" style="enable-background:new 0 0 220.78 333.53;" xml:space="preserve">
<style type="text/css">
	.st0{fill:url(#SVGID_1_);}
	.st1{fill:url(#SVGID_2_);}
	.st2{fill:url(#SVGID_3_);}
</style>
<g>
	<linearGradient id="SVGID_1_" gradientUnits="userSpaceOnUse" x1="2.7538" y1="163.7702" x2="162.2073" y2="163.7702">
		<stop  offset="0" style="stop-color:#DF166B"/>
		<stop  offset="0.0543" style="stop-color:#CC1A6C"/>
		<stop  offset="0.1544" style="stop-color:#B21F6E"/>
		<stop  offset="0.2566" style="stop-color:#9F2270"/>
		<stop  offset="0.3606" style="stop-color:#912472"/>
		<stop  offset="0.4673" style="stop-color:#892472"/>
		<stop  offset="0.581" style="stop-color:#872573"/>
		<stop  offset="1" style="stop-color:#56266E"/>
	</linearGradient>
	<path class="st0" d="M39.64,130.16c0,0,90.84-1.36,122.57,16.27c-16.27,21.69-120.4,50.98-120.4,50.98H2.76
		C2.76,197.41,1.14,157.27,39.64,130.16z"/>
	<linearGradient id="SVGID_2_" gradientUnits="userSpaceOnUse" x1="1.818989e-12" y1="98.7032" x2="220.7784" y2="98.7032">
		<stop  offset="0" style="stop-color:#5E439A"/>
		<stop  offset="5.556840e-03" style="stop-color:#5D449B"/>
		<stop  offset="0.0819" style="stop-color:#5454A4"/>
		<stop  offset="0.16" style="stop-color:#4B5FAB"/>
		<stop  offset="0.2402" style="stop-color:#4564AF"/>
		<stop  offset="0.3256" style="stop-color:#4366B0"/>
		<stop  offset="1" style="stop-color:#61C7CA"/>
	</linearGradient>
	<path class="st1" d="M220.78,0v79.72c0,0-192.53,9.49-218.01,117.68C-15.13,75.65,53.47,18.44,220.78,0z"/>
	<linearGradient id="SVGID_3_" gradientUnits="userSpaceOnUse" x1="1.5662" y1="239.9789" x2="162.2073" y2="239.9789">
		<stop  offset="0" style="stop-color:#5E439A"/>
		<stop  offset="5.556840e-03" style="stop-color:#5D449B"/>
		<stop  offset="0.0819" style="stop-color:#5454A4"/>
		<stop  offset="0.16" style="stop-color:#4B5FAB"/>
		<stop  offset="0.2402" style="stop-color:#4564AF"/>
		<stop  offset="0.3256" style="stop-color:#4366B0"/>
		<stop  offset="1" style="stop-color:#61C7CA"/>
	</linearGradient>
	<path class="st2" d="M162.21,222.35c0,0-139.38,9.76-158.36,111.18c-11.93-99.52,20.34-165.95,158.36-187.1
		C162.21,189.54,162.21,222.35,162.21,222.35z"/>
</g>
</svg>
