<svg xmlns="http://www.w3.org/2000/svg" xmlns:xlink="http://www.w3.org/1999/xlink" fill="none" version="1.1" width="24" height="24" viewBox="0 0 24 24"><g style="mix-blend-mode:passthrough"><g style="mix-blend-mode:passthrough"><g style="mix-blend-mode:passthrough"><g style="mix-blend-mode:passthrough"><path d="M11,20C8.7,20,6.4,19.12,4.640000000000001,17.36C1.12,13.85,1.12,8.15,4.640000000000001,4.640000000000001C6.39,2.88,8.7,2,11,2C13.3,2,15.61,2.88,17.36,4.63C20.87,8.15,20.87,13.85,17.36,17.36C15.61,19.12,13.3,20,11,20ZM4,11C4,9.129999999999999,4.73,7.37,6.05,6.05C7.37,4.73,9.129999999999999,4,11,4C12.87,4,14.63,4.73,15.95,6.05C18.68,8.780000000000001,18.68,13.22,15.95,15.95C14.63,17.27,12.87,18,11,18C9.129999999999999,18,7.37,17.27,6.05,15.95C4.73,14.63,4,12.87,4,11Z" fill-rule="evenodd" fill="#666" fill-opacity="1"/></g><g style="mix-blend-mode:passthrough"><path d="M17.62,19.970468750000002C17.95,20.44046875,18.48,20.68046875,19,20.68046875C19.43,20.68046875,19.86,20.52046875,20.2,20.18046875C20.94,19.44046875,20.84,18.21046875,19.990000000000002,17.60046875L16.67,15.23046875L16.66,15.24046875L15.25,16.65046875L17.62,19.970468750000002Z" fill-rule="evenodd" fill="#666" fill-opacity="1"/></g></g></g></g></svg>